<svg width="797" height="802" viewBox="0 0 797 802" fill="none" xmlns="http://www.w3.org/2000/svg">
    <path
        d="M398 18C610 18 783 191 783 402C783 613 610 786 398 786C309 786 222 770.5 155 720.5L73 760C58 769 41 755 46 737L68 652C39 592 22 525 22 452C22 211 196 18 398 18Z"
        fill="url(#paint0_linear_2005_2)" />
    <path
        d="M320 380C379.647 380 428 331.647 428 272C428 212.353 379.647 164 320 164C260.353 164 212 212.353 212 272C212 331.647 260.353 380 320 380Z"
        fill="#F4F4F4" />
    <path
        d="M116 545C116 474 173 417 244 417H368C439 417 496 474 496 545V605C496 644 464 675 425 675H187C148 675 116 644 116 605V545Z"
        fill="#F4F4F4" />
    <path
        d="M696 251H512C499.297 251 489 261.297 489 274C489 286.703 499.297 297 512 297H696C708.703 297 719 286.703 719 274C719 261.297 708.703 251 696 251Z"
        fill="#F4F4F4" />
    <path
        d="M611 334H512C499.297 334 489 344.297 489 357C489 369.703 499.297 380 512 380H611C623.703 380 634 369.703 634 357C634 344.297 623.703 334 611 334Z"
        fill="#F4F4F4" />
    <defs>
        <linearGradient id="paint0_linear_2005_2" x1="120" y1="650" x2="700" y2="120" gradientUnits="userSpaceOnUse">
            <stop stop-color="#0A63FF" />
            <stop offset="1" stop-color="#2D8CFF" />
        </linearGradient>
    </defs>
</svg>